# Blender v2.70 (sub 0) OBJ File: 'collisions.blend'
# www.blender.org
mtllib collisions_obj.mtl
o Cylinder
v 0.000000 -1.000000 2.499999
v 0.000000 1.000000 2.499999
v -0.487726 -1.000000 2.451962
v -0.487726 1.000000 2.451962
v -2.309699 -1.000000 0.956708
v -2.309699 1.000000 0.956708
v -2.451963 -1.000000 0.487725
v -2.451963 1.000000 0.487725
v -2.500000 -1.000000 -0.000000
v -2.500000 1.000000 -0.000000
v -2.451963 -1.000000 -0.487726
v -2.451963 1.000000 -0.487726
v -0.956708 -1.000000 -2.309700
v -0.956708 1.000000 -2.309700
v -0.487725 -1.000000 -2.451964
v -0.487725 1.000000 -2.451964
v 0.000001 -1.000000 -2.500001
v 0.000001 1.000000 -2.500001
v 0.487727 -1.000000 -2.451964
v 0.487727 1.000000 -2.451964
v 2.309700 -1.000000 -0.956707
v 2.309700 1.000000 -0.956707
v 2.451964 -1.000000 -0.487724
v 2.451964 1.000000 -0.487724
v 2.500000 -1.000000 0.000002
v 2.500000 1.000000 0.000002
v 2.451963 -1.000000 0.487728
v 2.451963 1.000000 0.487728
v 0.956705 -1.000000 2.309700
v 0.956705 1.000000 2.309700
v 0.487722 -1.000000 2.451963
v 0.487722 1.000000 2.451963
v 0.000000 -1.000000 3.000000
v 0.000000 1.000000 3.000000
v -0.585271 -1.000000 2.942355
v -0.585271 1.000000 2.942355
v -2.771638 -1.000000 1.148050
v -2.771638 1.000000 1.148050
v -2.942355 -1.000000 0.585270
v -2.942355 1.000000 0.585270
v -3.000000 -1.000000 -0.000000
v -3.000000 1.000000 -0.000000
v -2.942356 -1.000000 -0.585271
v -2.942356 1.000000 -0.585271
v -1.148050 -1.000000 -2.771640
v -1.148050 1.000000 -2.771640
v -0.585270 -1.000000 -2.942357
v -0.585270 1.000000 -2.942357
v 0.000001 -1.000000 -3.000001
v 0.000001 1.000000 -3.000001
v 0.585272 -1.000000 -2.942356
v 0.585272 1.000000 -2.942356
v 2.771640 -1.000000 -1.148049
v 2.771640 1.000000 -1.148049
v 2.942357 -1.000000 -0.585269
v 2.942357 1.000000 -0.585269
v 3.000000 -1.000000 0.000002
v 3.000000 1.000000 0.000002
v 2.942356 -1.000000 0.585273
v 2.942356 1.000000 0.585273
v 1.148046 -1.000000 2.771640
v 1.148046 1.000000 2.771640
v 0.585267 -1.000000 2.942356
v 0.585267 1.000000 2.942356
vt 0.000000 0.000000
vt 1.000000 0.000000
vt 1.000000 1.000000
vt 0.000000 1.000000
vn 0.000000 -1.000000 0.000000
vn 0.000000 1.000000 0.000000
vn 0.382684 0.000000 0.923879
vn -0.980785 0.000000 -0.195090
vn -0.098017 0.000000 0.995185
vn -0.956940 0.000000 0.290285
vn -0.995185 0.000000 0.098018
vn -0.995185 0.000000 -0.098017
vn -0.290285 0.000000 -0.956940
vn -0.098017 0.000000 -0.995185
vn 0.098018 0.000000 -0.995185
vn 0.956941 0.000000 -0.290284
vn 0.995185 0.000000 -0.098016
vn 0.995185 0.000000 0.098018
vn 0.195091 0.000000 -0.980785
vn -0.923880 0.000000 0.382683
vn 0.980785 0.000000 0.195091
vn -0.382683 0.000000 -0.923880
vn -0.195091 0.000000 0.980785
vn 0.098017 0.000000 0.995185
vn 0.290283 0.000000 0.956941
vn -0.995185 0.000000 -0.098018
vn -0.995185 0.000000 0.098016
vn -0.956941 0.000000 0.290284
vn -0.098018 0.000000 0.995185
vn 0.290284 0.000000 0.956941
vn 0.995185 0.000000 0.098017
vn 0.995185 0.000000 -0.098017
vn 0.956940 0.000000 -0.290285
vn 0.098017 0.000000 -0.995185
vn -0.098016 0.000000 -0.995185
vn -0.290283 0.000000 -0.956941
vn 0.923880 0.000000 -0.382682
usemtl None
s off
f 11/1/1 9/2/1 41/3/1 43/4/1
f 16/1/2 18/2/2 50/3/2 48/4/2
f 31/1/1 29/2/1 61/3/1 63/4/1
f 17/1/1 15/2/1 47/3/1 49/4/1
f 22/1/2 24/2/2 56/3/2 54/4/2
f 2/1/2 4/2/2 36/3/2 34/4/2
f 8/1/2 10/2/2 42/3/2 40/4/2
f 23/1/1 21/2/1 53/3/1 55/4/1
f 38/1/3 37/2/3 5/3/3 6/4/3
f 26/1/2 28/2/2 60/3/2 58/4/2
f 3/1/1 1/2/1 33/3/1 35/4/1
f 9/1/1 7/2/1 39/3/1 41/4/1
f 14/1/2 16/2/2 48/3/2 46/4/2
f 35/1/4 36/2/4 4/3/4 3/4/4
f 33/1/5 34/2/5 36/3/5 35/4/5
f 37/1/6 38/2/6 40/3/6 39/4/6
f 39/1/7 40/2/7 42/3/7 41/4/7
f 41/1/8 42/2/8 44/3/8 43/4/8
f 45/1/9 46/2/9 48/3/9 47/4/9
f 47/1/10 48/2/10 50/3/10 49/4/10
f 49/1/11 50/2/11 52/3/11 51/4/11
f 53/1/12 54/2/12 56/3/12 55/4/12
f 55/1/13 56/2/13 58/3/13 57/4/13
f 57/1/14 58/2/14 60/3/14 59/4/14
f 12/1/15 11/2/15 43/3/15 44/4/15
f 14/1/16 46/2/16 45/3/16 13/4/16
f 19/1/17 51/2/17 52/3/17 20/4/17
f 21/1/18 22/2/18 54/3/18 53/4/18
f 60/1/19 28/2/19 27/3/19 59/4/19
f 63/1/20 64/2/20 34/3/20 33/4/20
f 61/1/21 62/2/21 64/3/21 63/4/21
f 30/1/2 32/2/2 64/3/2 62/4/2
f 25/1/1 23/2/1 55/3/1 57/4/1
f 10/1/2 12/2/2 44/3/2 42/4/2
f 7/1/1 5/2/1 37/3/1 39/4/1
f 24/1/2 26/2/2 58/3/2 56/4/2
f 19/1/1 17/2/1 49/3/1 51/4/1
f 1/1/1 31/2/1 63/3/1 33/4/1
f 6/1/2 8/2/2 40/3/2 38/4/2
f 18/1/2 20/2/2 52/3/2 50/4/2
f 15/1/1 13/2/1 45/3/1 47/4/1
f 32/1/2 2/2/2 34/3/2 64/4/2
f 27/1/1 25/2/1 57/3/1 59/4/1
f 25/1/22 27/2/22 28/3/22 26/4/22
f 23/1/23 25/2/23 26/3/23 24/4/23
f 21/1/24 23/2/24 24/3/24 22/4/24
f 17/1/25 19/2/25 20/3/25 18/4/25
f 15/1/20 17/2/20 18/3/20 16/4/20
f 13/1/26 15/2/26 16/3/26 14/4/26
f 9/1/27 11/2/27 12/3/27 10/4/27
f 7/1/28 9/2/28 10/3/28 8/4/28
f 5/1/29 7/2/29 8/3/29 6/4/29
f 1/1/30 3/2/30 4/3/30 2/4/30
f 31/1/31 1/2/31 2/3/31 32/4/31
f 29/1/32 31/2/32 32/3/32 30/4/32
f 30/1/33 62/2/33 61/3/33 29/4/33
